<svg width="10" height="10" viewBox="0 0 10 10" fill="none" xmlns="http://www.w3.org/2000/svg">
<path d="M5 7.23437C4.91666 7.23437 4.83854 7.22146 4.76562 7.19562C4.6927 7.16979 4.625 7.12542 4.5625 7.0625L2.3125 4.8125C2.1875 4.6875 2.1275 4.54167 2.1325 4.375C2.1375 4.20833 2.1975 4.0625 2.3125 3.9375C2.4375 3.8125 2.58604 3.7475 2.75812 3.7425C2.93021 3.7375 3.07854 3.79729 3.20312 3.92188L4.375 5.09375V0.625002C4.375 0.447919 4.435 0.299585 4.555 0.180002C4.675 0.0604189 4.82333 0.000418822 5 2.15517e-06C5.17666 -0.000414511 5.3252 0.0595855 5.44562 0.180002C5.56604 0.300419 5.62583 0.448752 5.625 0.625002V5.09375L6.79687 3.92188C6.92187 3.79688 7.07041 3.73688 7.24249 3.74188C7.41458 3.74688 7.56291 3.81208 7.68749 3.9375C7.80208 4.0625 7.86208 4.20833 7.86749 4.375C7.87291 4.54167 7.81291 4.6875 7.68749 4.8125L5.4375 7.0625C5.375 7.125 5.30729 7.16937 5.23437 7.19562C5.16145 7.22187 5.08333 7.23479 5 7.23437ZM1.25 10C0.906249 10 0.612083 9.87771 0.3675 9.63312C0.122916 9.38854 0.000416666 9.09417 0 8.75V7.5C0 7.32292 0.06 7.17458 0.18 7.055C0.3 6.93542 0.448333 6.87542 0.624999 6.875C0.801666 6.87458 0.950207 6.93458 1.07062 7.055C1.19104 7.17542 1.25083 7.32375 1.25 7.5V8.75H8.74999V7.5C8.74999 7.32292 8.80999 7.17458 8.92999 7.055C9.04999 6.93542 9.19833 6.87542 9.37499 6.875C9.55166 6.87458 9.7002 6.93458 9.82062 7.055C9.94103 7.17542 10.0008 7.32375 9.99999 7.5V8.75C9.99999 9.09375 9.8777 9.38812 9.63312 9.63312C9.38853 9.87812 9.09416 10.0004 8.74999 10H1.25Z" fill="white"/>
</svg>
