<svg width="42" height="34" viewBox="0 0 42 34" fill="none" xmlns="http://www.w3.org/2000/svg">
<path d="M29.4 23.375L35.7 17L33.495 14.7156L30.975 17.2656V10.625H27.825V17.2656L25.305 14.7156L23.1 17L29.4 23.375ZM4.2 34C3.045 34 2.05625 33.5839 1.23375 32.7516C0.41125 31.9193 0 30.9188 0 29.75V4.25C0 3.08125 0.41125 2.08073 1.23375 1.24844C2.05625 0.416146 3.045 0 4.2 0H37.8C38.955 0 39.9437 0.416146 40.7663 1.24844C41.5887 2.08073 42 3.08125 42 4.25V29.75C42 30.9188 41.5887 31.9193 40.7663 32.7516C39.9437 33.5839 38.955 34 37.8 34H4.2ZM4.2 29.75H37.8V4.25H4.2V29.75ZM7.35 23.375H10.5V13.8125H12.6V20.1875H15.75V13.8125H17.85V23.375H21V12.75C21 12.1479 20.7987 11.6432 20.3962 11.2359C19.9937 10.8286 19.495 10.625 18.9 10.625H9.45C8.855 10.625 8.35625 10.8286 7.95375 11.2359C7.55125 11.6432 7.35 12.1479 7.35 12.75V23.375Z" fill="#E3E3E3"/>
</svg>
