<svg width="16" height="16" viewBox="0 0 16 16" fill="none" xmlns="http://www.w3.org/2000/svg">
<path d="M0 1.55556C0 1.143 0.160293 0.747335 0.445616 0.455612C0.730939 0.163888 1.11792 0 1.52143 0H5.72057C5.94861 2.90871e-05 6.17372 0.0524679 6.37926 0.153439C6.58481 0.254409 6.76552 0.401329 6.90805 0.583333L7.97305 1.94444H13.6929C14.0964 1.94444 14.4833 2.10833 14.7687 2.40006C15.054 2.69178 15.2143 3.08744 15.2143 3.5V12.4444C15.2143 12.857 15.054 13.2527 14.7687 13.5444C14.4833 13.8361 14.0964 14 13.6929 14H1.52143C1.11792 14 0.730939 13.8361 0.445616 13.5444C0.160293 13.2527 0 12.857 0 12.4444V1.55556Z" fill="white"/>
<path d="M6.95437 10.5028V5.81534H7.74982V10.5028H6.95437ZM5.00835 8.55682V7.76136H9.69585V8.55682H5.00835Z" fill="black"/>
</svg>
